<svg width="35" height="36" viewBox="0 0 35 36" fill="none" xmlns="http://www.w3.org/2000/svg">
<path d="M17.4124 16.8333H31.6311" stroke="#353535" stroke-width="2" stroke-linecap="round" stroke-linejoin="round"/>
<path d="M26.1733 30.4583H26.6733V29.9583V27.1771H27.8608V31.0521C27.8608 31.2096 27.7983 31.3606 27.6869 31.4719C27.5756 31.5833 27.4246 31.6458 27.2671 31.6458H7.57959C7.42212 31.6458 7.27109 31.5833 7.15975 31.4719C7.0484 31.3606 6.98584 31.2096 6.98584 31.0521V2.61458C6.98584 2.45711 7.0484 2.30609 7.15975 2.19474C7.2711 2.08339 7.42212 2.02083 7.57959 2.02083H27.2671C27.4246 2.02083 27.5756 2.08339 27.6869 2.19474C27.7983 2.30609 27.8608 2.45711 27.8608 2.61458V6.48958H26.6733V3.70833V3.20833H26.1733H8.67334H8.17334V3.70833V29.9583V30.4583H8.67334H26.1733Z" fill="#353535" stroke="#353535"/>
<path d="M31.6311 16.8333L27.2561 21.2083" stroke="#353535" stroke-width="2" stroke-linecap="round" stroke-linejoin="round"/>
<path d="M31.6311 16.8333L27.2561 12.4583" stroke="#353535" stroke-width="2" stroke-linecap="round" stroke-linejoin="round"/>
<path d="M27.2561 8.18177V5.99427" stroke="#353535" stroke-width="2.5" stroke-linecap="round" stroke-linejoin="round"/>
<path d="M27.2561 27.7708V25.5833" stroke="#353535" stroke-width="2.5" stroke-linecap="round" stroke-linejoin="round"/>
</svg>
