<svg width="186" height="177" viewBox="0 0 186 177" fill="none" xmlns="http://www.w3.org/2000/svg">
<path d="M184.534 173.529C184.711 173.206 184.848 172.882 184.961 172.526C185.078 172.159 185.146 171.795 185.188 171.405C185.21 171.199 185.308 171.02 185.308 170.809C185.308 170.616 185.216 170.452 185.197 170.264C185.18 170.078 185.239 169.903 185.203 169.716L171.118 96.7782C171.077 96.5698 170.948 96.4111 170.887 96.2125C170.776 95.8467 170.646 95.5092 170.467 95.1782C170.279 94.8228 170.065 94.5101 169.812 94.2068C169.606 93.9612 169.395 93.7434 169.151 93.5354C168.825 93.256 168.485 93.0288 168.105 92.8293C167.828 92.6828 167.552 92.5659 167.251 92.4654C166.854 92.3344 166.454 92.2588 166.026 92.2175C165.828 92.1968 165.656 92.102 165.453 92.102H134.049L136.217 89.1535C136.277 89.0784 136.329 89.0033 136.382 88.9282C141.633 81.5364 147.89 69.6974 147.89 55.3006C147.89 25.1361 123.439 0.579322 93.3305 0.42157C93.2554 0.42157 93.1953 0.42157 93.1352 0.42157C93.0751 0.42157 93.015 0.42157 92.9399 0.42157C62.8242 0.579322 38.3726 25.1361 38.3726 55.3006C38.3726 69.5659 44.525 81.3223 49.7533 88.7366C49.8059 88.823 49.866 88.9056 49.9261 88.992L52.2126 92.102H20.5466C20.3372 92.102 20.1602 92.1997 19.9569 92.2213C19.5433 92.263 19.1578 92.3349 18.7723 92.4602C18.4554 92.5645 18.1667 92.687 17.8765 92.8419C17.5061 93.0373 17.1751 93.2584 16.8572 93.5293C16.6094 93.7401 16.3953 93.9608 16.1863 94.2096C15.9333 94.5129 15.7192 94.826 15.5304 95.1819C15.353 95.5111 15.2239 95.8472 15.1126 96.2111C15.052 96.4101 14.9229 96.5688 14.8825 96.7782L0.79749 169.716C0.761339 169.903 0.820026 170.078 0.802655 170.264C0.783875 170.452 0.692322 170.616 0.692322 170.809C0.692322 171.02 0.790447 171.199 0.812514 171.405C0.854299 171.795 0.921908 172.159 1.03928 172.526C1.15243 172.882 1.28906 173.206 1.46606 173.529C1.64306 173.854 1.83838 174.145 2.0736 174.43C2.30975 174.716 2.55906 174.965 2.84546 175.2C3.12716 175.434 3.41778 175.629 3.74408 175.806C4.08494 175.992 4.43143 176.129 4.80938 176.245C5.00469 176.305 5.15963 176.433 5.3648 176.473C5.7357 176.544 6.0991 176.576 6.45498 176.577C6.45263 176.577 6.45733 176.577 6.45498 176.577L179.538 176.578C179.536 176.578 179.541 176.578 179.538 176.578C179.894 176.577 180.264 176.544 180.635 176.473C180.84 176.433 180.995 176.305 181.191 176.245C181.569 176.129 181.915 175.992 182.256 175.806C182.582 175.629 182.873 175.434 183.155 175.2C183.441 174.965 183.69 174.716 183.926 174.43C184.162 174.145 184.357 173.854 184.534 173.529ZM49.9111 55.3006C49.9111 31.4349 69.2921 12.0126 93.1352 11.96C116.978 12.0126 136.352 31.4349 136.352 55.3006C136.352 66.5649 131.334 76.0676 127.082 82.1035C127.067 82.1223 127.052 82.1373 127.037 82.1561L93.1352 128.276L59.3537 82.3289C59.3311 82.3026 59.3161 82.2763 59.2936 82.25C55.0117 76.2178 49.9111 66.6475 49.9111 55.3006ZM88.3876 141.302C89.4769 142.782 91.4 143.653 93.2329 143.653C95.0658 143.653 96.7936 142.778 97.8828 141.302L125.567 103.64H160.692L172.549 165.04H13.4505L25.3078 103.64H60.6965L88.3876 141.302Z" fill="#989898"/>
<path d="M93.2329 79.632C106.627 79.632 117.527 68.7171 117.527 55.3006C117.527 41.8841 106.627 30.9692 93.2329 30.9692C79.8315 30.9692 68.9315 41.8841 68.9315 55.3006C68.9315 68.7171 79.8315 79.632 93.2329 79.632ZM93.2329 38.6615C102.39 38.6615 109.834 46.1247 109.834 55.3006C109.834 64.4765 102.39 71.9397 93.2329 71.9397C84.0757 71.9397 76.6238 64.4765 76.6238 55.3006C76.6238 46.1247 84.0758 38.6615 93.2329 38.6615Z" fill="#989898"/>
</svg>
