<svg width="126" height="251" viewBox="0 0 126 251" fill="none" xmlns="http://www.w3.org/2000/svg">
<rect y="0.270874" width="20" height="30" fill="#D9D9D9"/>
<rect x="30" y="0.270874" width="20" height="30" fill="#D9D9D9"/>
<rect x="60" y="0.270874" width="20" height="30" fill="#D9D9D9"/>
<rect x="90" y="0.270874" width="20" height="30" fill="#D9D9D9"/>
<rect y="50.2709" width="20" height="30" fill="#D9D9D9"/>
<rect x="30" y="50.2709" width="20" height="30" fill="#D9D9D9"/>
<rect x="60" y="50.2709" width="20" height="30" fill="#D9D9D9"/>
<rect x="90" y="50.2709" width="20" height="30" fill="#D9D9D9"/>
<rect y="100.271" width="20" height="30" fill="#D9D9D9"/>
<rect x="30" y="100.271" width="20" height="30" fill="#D9D9D9"/>
<rect x="60" y="100.271" width="20" height="30" fill="#D9D9D9"/>
<rect x="90" y="100.271" width="20" height="30" fill="#D9D9D9"/>
<rect y="150.271" width="20" height="30" fill="#D9D9D9"/>
<rect x="30" y="150.271" width="20" height="30" fill="#D9D9D9"/>
<rect x="60" y="150.271" width="20" height="30" fill="#D9D9D9"/>
<rect x="90" y="150.271" width="20" height="30" fill="#D9D9D9"/>
</svg>
