<svg xmlns="http://www.w3.org/2000/svg" viewBox="0 0 64 64" fill="#FB4">
	<path d="M51.8,30.9v-0.8h-4.7v0.8h-0.8v-4.7h2.4v-0.8h0.8V13.5h0.8v-0.8h0.8V12H12.8v0.8h0.8v0.8h0.8v11.9h0.8v0.8h2.4V31h-0.8v-0.8h-4.7V31h-0.8v7.5h0.8v0.8h2.4V40h1.6v0.8h1.6V48h0.8v0.8h1v0.8h2.3v0.8h0.8v3.3h0.8v0.8H28v0.8h0.8v3.5h-6.2v0.8h-0.8v0.8h-2.7V61h25.6v-0.8H42v-0.8h-0.8v-0.8h-6.1v-3.5h0.8v-0.8h4.6v-0.8h0.8v-3.3h0.8v-0.8h2.3v-0.8h1.1v-0.8h0.8v-7.2h1.6V40h1.6v-0.8h2.4v-0.8h0.8v-7.5L51.8,30.9z M17.1,39h-0.7v-0.6h-1.2v-0.6h-1.9v-5.9h2.5v0.6H17L17.1,39z M40,59.5v0.7H23.9v-0.7H40z M30.1,55.5v-0.6h3.7v0.6h-0.6v2.7h-2.5v-2.7H30.1z M39.7,50.4H39v3H25v-3h-0.7v-0.7h15.5L39.7,50.4z M44.7,25.7v0.7H44V47h-1.5v0.7H21.3V47h-1.5V26.5h-0.7v-0.7h-2.2V14.5h-0.7v-0.7h31.6v0.7h-0.7v11.2H44.7z M50.5,37.8h-1.9v0.6h-1.2V39h-0.6v-6.5H48v-0.6h2.5V37.8z"/>
	<path d="M43,10.4V9.6h-0.8V8.8h-0.7V8h-6.3V4.6H36V3.8h2.3V3H25.6v0.8H28v0.8h0.8V8h-6.3v0.8h-0.8v0.8h-0.8v0.8h-1.8v0.8h25.6v-0.8C44.7,10.4,43,10.4,43,10.4z M33.8,4.3v0.6h-0.6v2.7h-2.5V4.9h-0.6V4.3H33.8z M40.9,10.3H23V9.6h0.7V8.9h16.5v0.7h0.7V10.3z"/>
	<rect x="34.5" y="18.3" width="9" height="3"/>
	<rect x="20.5" y="18.3" width="9" height="3"/>
	<polygon points="28,39.4 36,39.4 36,41 33.5,41 33.5,44 30.3,44 30.3,41 28,41"/>
</svg>
